<svg xmlns="http://www.w3.org/2000/svg" width="1657.692" height="293.312" viewBox="0 0 1657.692 293.312" fill="none">
  <path d="M 0 286.628 L 0 5.505 L 69.986 5.505 L 153.34 146.656 L 172.606 182.435 L 173.392 182.435 C 172.868 159.893 172.606 145.345 172.606 138.792 L 172.606 5.505 L 240.626 5.505 L 240.626 286.628 L 170.64 286.628 L 88.072 147.442 L 68.02 109.697 L 67.234 109.697 C 67.758 133.812 68.02 149.146 68.02 155.699 L 68.02 286.628 L 0 286.628 Z" fill="currentColor" fill-rule="nonzero"></path>
  <path d="M 395.13 236.694 C 417.148 236.694 433.924 228.437 445.457 211.924 C 457.253 195.148 463.15 173.392 463.15 146.656 C 463.15 119.92 457.253 98.164 445.457 81.388 C 433.924 64.613 417.148 56.225 395.13 56.225 C 373.374 56.225 356.468 64.613 344.41 81.388 C 332.615 98.164 326.717 119.92 326.717 146.656 C 326.717 173.13 332.615 194.755 344.41 211.531 C 356.468 228.306 373.374 236.694 395.13 236.694 Z M 495.784 252.028 C 470.359 279.551 436.676 293.312 394.737 293.312 C 352.798 293.312 319.116 279.551 293.69 252.028 C 268.526 224.506 255.945 189.382 255.945 146.656 C 255.945 103.931 268.526 68.806 293.69 41.284 C 319.116 13.761 352.798 0 394.737 0 C 436.676 0 470.359 13.761 495.784 41.284 C 521.21 68.806 533.923 103.931 533.923 146.656 C 533.923 189.382 521.21 224.506 495.784 252.028 Z" fill="currentColor" fill-rule="nonzero"></path>
  <path d="M 606.581 286.628 L 606.581 64.481 L 524.8 64.481 L 524.8 5.505 L 758.742 5.505 L 758.742 64.481 L 676.174 64.481 L 676.174 286.628 L 606.581 286.628 Z" fill="currentColor" fill-rule="nonzero"></path>
  <path d="M 772.859 286.628 L 772.859 5.505 L 842.452 5.505 L 842.452 112.056 L 941.14 112.056 L 941.14 5.505 L 1010.733 5.505 L 1010.733 286.628 L 941.14 286.628 L 941.14 169.46 L 842.452 169.46 L 842.452 286.628 L 772.859 286.628 Z" fill="currentColor" fill-rule="nonzero"></path>
  <path d="M 1037.911 286.628 L 1037.911 5.505 L 1107.504 5.505 L 1107.504 286.628 L 1037.911 286.628 Z" fill="currentColor" fill-rule="nonzero"></path>
  <path d="M 1134.385 286.628 L 1134.385 5.505 L 1204.371 5.505 L 1287.725 146.656 L 1306.991 182.435 L 1307.777 182.435 C 1307.253 159.893 1306.991 145.345 1306.991 138.792 L 1306.991 5.505 L 1375.011 5.505 L 1375.011 286.628 L 1305.025 286.628 L 1222.457 147.442 L 1202.405 109.697 L 1201.619 109.697 C 1202.143 133.812 1202.405 149.146 1202.405 155.699 L 1202.405 286.628 L 1134.385 286.628 Z" fill="currentColor" fill-rule="nonzero"></path>
  <path d="M 1524.404 292.919 C 1484.562 292.919 1452.583 279.813 1428.468 253.601 C 1403.305 226.078 1390.723 190.561 1390.723 147.049 C 1390.723 101.702 1404.615 65.137 1432.4 37.352 C 1456.777 12.451 1488.887 0 1528.729 0 C 1564.115 0 1592.555 8.781 1614.049 26.343 C 1635.543 43.643 1648.649 67.365 1653.367 97.509 L 1585.74 97.509 C 1583.119 85.713 1576.959 76.146 1567.261 68.806 C 1557.824 61.205 1545.767 57.404 1531.088 57.404 C 1508.546 57.404 1491.246 65.661 1479.188 82.175 C 1467.393 98.688 1461.495 120.313 1461.495 147.049 C 1461.495 173.261 1467.917 194.755 1480.761 211.531 C 1493.605 228.306 1510.774 236.694 1532.268 236.694 C 1549.568 236.694 1563.591 231.845 1574.338 222.147 C 1585.347 212.448 1591.638 200.915 1593.211 187.547 L 1593.211 186.76 L 1540.524 186.76 L 1540.524 135.647 L 1657.692 135.647 L 1657.692 286.628 L 1608.938 286.628 L 1605.006 252.815 L 1604.22 252.815 C 1586.92 279.551 1560.314 292.919 1524.404 292.919 Z" fill="currentColor" fill-rule="nonzero"></path>
</svg>